<svg xmlns="http://www.w3.org/2000/svg" viewBox="0 0 18.2 13.2"><title>icon__mail_1</title><g id="レイヤー_2" data-name="レイヤー 2"><g id="レイヤー_1-2" data-name="レイヤー 1"><path d="M17.71,1.09h0A2.63,2.63,0,0,0,15.6,0H2.6A2.63,2.63,0,0,0,.5,1.07h0A2.57,2.57,0,0,0,0,2.6v8a2.59,2.59,0,0,0,2.6,2.6h13a2.59,2.59,0,0,0,2.6-2.6v-8A2.57,2.57,0,0,0,17.71,1.09ZM15.6,1.2a1.37,1.37,0,0,1,.74.22L9.1,7.24,1.86,1.42A1.37,1.37,0,0,1,2.6,1.2ZM17,10.6A1.4,1.4,0,0,1,15.6,12H2.6a1.4,1.4,0,0,1-1.4-1.4v-8a.78.78,0,0,1,0-.16l7.5,6a.6.6,0,0,0,.76,0l7.5-6a.78.78,0,0,1,0,.16Z"/></g></g></svg>