<?xml version="1.0" encoding="utf-8"?>
<!-- Generator: Adobe Illustrator 23.0.4, SVG Export Plug-In . SVG Version: 6.00 Build 0)  -->
<svg version="1.1" id="icon" xmlns="http://www.w3.org/2000/svg" xmlns:xlink="http://www.w3.org/1999/xlink" x="0px" y="0px"
	 viewBox="0 0 256 256" style="enable-background:new 0 0 256 256;" xml:space="preserve">
<style type="text/css">
	.st0{fill:#FFFFFF;}
</style>
<g>
	<rect width="256" height="256"/>
	<path class="st0" d="M211,181c18.9-25.7,27.8-55.9,27.8-85.6c0-35.6-13.7-69.7-37.4-95.4C190.1,0,0,0,0,0s0,166.2,0,200.3
		c24.8,23.2,58.6,37.9,98.2,37.9c29.3,0,57.5-9.5,81.1-26.1l45.6,43.9l31.5-31.8L211,181z M97.3,193.2c-53.6,0-97.2-43.5-97.2-97.2
		C0.1,47.4,35.8,7,82.4,0c4.3,0,24.9,0,29.8,0c46.6,7,82.3,47.4,82.3,96.1C194.5,149.7,151,193.2,97.3,193.2z"/>
</g>
</svg>
