<?xml version="1.0" encoding="utf-8"?>
<!-- Generator: Adobe Illustrator 23.0.3, SVG Export Plug-In . SVG Version: 6.00 Build 0)  -->
<svg version="1.1" id="レイヤー_1" xmlns="http://www.w3.org/2000/svg" xmlns:xlink="http://www.w3.org/1999/xlink" x="0px"
	 y="0px" viewBox="0 0 500 258" style="enable-background:new 0 0 500 258;" xml:space="preserve">
<style type="text/css">
	.st0{fill:#dddddd;}
</style>
<g transform="translate(86 86)">
	<path class="st0" d="M203.5,47.1v-0.2c0-7.1-5.1-13.4-12.7-13.4c-7.8,0-12.5,6-12.5,13.2v0.2c0,7.1,5.1,13.4,12.7,13.4
		C198.8,60.3,203.5,54.2,203.5,47.1z M164.7,47.1v-0.2c0-13.9,11.2-25.2,26.2-25.2c15,0,26,11.1,26,25v0.2
		c0,13.9-11.2,25.2-26.2,25.2C175.8,72.1,164.7,61,164.7,47.1z M238.6,57.3V36c0-1-0.7-1.6-1.6-1.6h-3.3c0,0-0.8,0-0.8-0.8V23.4
		c0-0.4,0.1-0.8,0.8-0.8h3.3c0.8,0,1.6-0.5,1.6-1.6v-9.9c0-0.5,0.2-0.8,0.8-0.8h12.1c0.3,0,0.9,0.2,0.9,0.9V21c0,1,0.4,1.6,1.6,1.6
		h8.9c0.4,0,0.8,0.1,0.8,0.8v10.1c0,0.5,0,0.8-0.8,0.8H254c-1,0-1.6,0.6-1.6,1.6v19c0,3.2,1.6,4.9,4.4,4.7c2.6-0.2,3.8-0.3,5.6-1.2
		c0,0,1.1-0.2,1.1,0.9v8.7c0,0.6-0.3,1-0.8,1.3c-2.8,1.4-5.7,2.4-10,2.4C244.3,71.8,238.6,68.5,238.6,57.3z M103.7,22.6h12
		c0.3,0,0.8,0.3,0.8,0.8V26c0,1.5,1.5,1.7,2,1.1c3.1-3.5,7.7-5.4,12.2-5.4c10.4,0,16.4,6.9,16.4,18v30.5c0,0.2-0.2,0.8-0.8,0.8h-12
		c-0.3,0-0.8-0.3-0.8-0.8V44c0-6.5-3.1-9.8-8.3-9.8c-5.2,0-8.6,3.3-8.6,9.8v26.1c0,0.3-0.3,0.8-0.8,0.8h-12c-0.3,0-0.8-0.3-0.8-0.8
		V23.5C102.9,23.1,103.1,22.6,103.7,22.6z M314.8,41.4c-1.2-4.7-4.1-8.7-9.9-8.7c-7.3,0-9.6,6.7-10.1,8.6c-0.2,0.7,0.3,1.7,1.3,1.7
		h17.3C314.9,43,314.8,41.4,314.8,41.4z M281,47.1v-0.2c0-13.8,9.8-25.2,23.9-25.2c16.1,0,23.5,12.5,23.5,26.3c0,0.7,0,1.4-0.1,2.2
		c0,0.5-0.4,1.4-1.5,1.4h-30.4c-1.3,0-1.5,1.3-1.2,1.9c1.8,5,5.8,7.5,11.3,7.5c4.2,0,7.3-1.2,10.8-4.2c0.7-0.6,1.5-0.4,1.9,0.1
		c0,0,5.2,4.6,5.9,5.2c0.7,0.6,0.6,1.4,0.1,1.8c-4.5,4.9-10.5,8-18.9,8C291.7,72.1,281,61.9,281,47.1z"/>
	<path class="st0" d="M10.3,71h51.4V10.3H24.6c-0.3,0-0.7,0.2-0.9,0.5c-4.4,4.7-8.7,9.5-13,14.2c-0.2,0.2-0.4,0.7-0.4,1.2L10.3,71z
		 M66.8,0C69.7,0,72,2.3,72,5.1v71c0,2.8-2.3,5.1-5.1,5.1H5.2C2.3,81.3,0,79,0,76.1c0-0.6,0-50,0-52c0-2,0.6-3.7,2-5.2L17.5,2.1
		C18.8,0.7,20.4,0,22.3,0H66.8z M20.6,35.8c-2.3,0-4.1-1.8-4.1-4.1s1.8-4.1,4.1-4.1h7l0-7c0-2.3,1.8-4.1,4.1-4.1s4.1,1.8,4.1,4.1
		v11.1c0,2.3-1.8,4.1-4.1,4.1H20.6z"/>
</g>
</svg>
