<svg xmlns="http://www.w3.org/2000/svg" viewBox="0 0 403.58 139.88">
  <style type="text/css">
	.st0{fill:#ffffff;}
  </style>
  <g id="レイヤー_2" data-name="レイヤー 2" class="st0">
    <g id="Qiita">
      <g id="Qiita-2" data-name="Qiita">
        <g id="Qiita-3" data-name="Qiita">
          <path d="M105.19,120.72A65.61,65.61,0,0,1,67,133c-18.64,0-35.81-7.11-48.34-20A66.56,66.56,0,0,1,0,67C0,25.06,33.55,0,66,0c18.64,0,35.81,7.11,48.33,20a67.11,67.11,0,0,1,.11,92.78l18.5,18.5-8.57,8.57ZM66,12.16c-26.45,0-53.82,20.45-53.82,54.67,0,26.54,20.45,54,54.67,54,26,0,54-20.77,54-54.33C120.81,36,96.73,12.16,66,12.16Z"/>
          <path d="M112.3,112.81l18.5,18.5-6.45,6.45-19-19A64.59,64.59,0,0,1,67,131.47C28.31,131.47,1.5,100.76,1.5,67,1.5,28.14,32.21,1.5,66,1.5c38.69,0,65.5,30.71,65.5,64.48A65.26,65.26,0,0,1,112.3,112.81Zm10-46.32c0-30.55-23.92-55.83-56.33-55.83-28.34,0-55.32,22.4-55.32,56.17a55.53,55.53,0,0,0,56.17,55.49C95.17,122.32,122.31,99.91,122.31,66.49Z"/>
          <path d="M164.26,129.92V38h11.48v91.91Zm5.57-103.5a9.78,9.78,0,0,1-9.65-9.65,9.65,9.65,0,0,1,19.29,0A9.77,9.77,0,0,1,169.83,26.42Z"/>
          <path d="M169.83,8.63A8.26,8.26,0,0,1,178,16.77a8.15,8.15,0,1,1-16.3,0A8.25,8.25,0,0,1,169.83,8.63Zm-4.07,119.79V39.51h8.48v88.91Z"/>
          <path d="M210.12,129.92V38H221.6v91.91Zm5.58-103.5a9.78,9.78,0,0,1-9.65-9.65,9.64,9.64,0,1,1,19.28,0A9.77,9.77,0,0,1,215.7,26.42Z"/>
          <path d="M215.7,8.63a8.25,8.25,0,0,1,8.13,8.14,8.14,8.14,0,1,1-16.28,0A8.25,8.25,0,0,1,215.7,8.63Zm-4.08,119.79V39.51h8.48v88.91Z"/>
          <path d="M289,131.79c-20.91,0-33.4-16.46-33.4-32.38V12.89h11.48V38h40.05V49.5H267.11V99.24a21.19,21.19,0,0,0,21.75,21.07,22.24,22.24,0,0,0,11-3l1.29-.74,5.74,9.86-1.26.76A32.37,32.37,0,0,1,289,131.79Z"/>
          <path d="M257.13,99.41v-85h8.48V39.51h40.05V48H265.61V99.24a22.71,22.71,0,0,0,23.25,22.57,23.82,23.82,0,0,0,11.71-3.23l4.24,7.3A30.85,30.85,0,0,1,289,130.29C269.18,130.29,257.13,114.68,257.13,99.41Z"/>
          <path d="M364.08,132.13c-30.68,0-49-24.41-49-48,0-30.67,24.4-49,48-49,12.12,0,22.07,4.1,29,11.92V38h11.48v91.91H392.1V120C385.19,127.93,375.6,132.13,364.08,132.13Zm-.85-85.52a37,37,0,1,0,28.87,60.75V59.89A37.1,37.1,0,0,0,363.23,46.61Z"/>
          <path d="M363.06,36.63c14.6,0,24.43,5.93,30.54,14.76V39.51h8.49v88.91H393.6V115.53c-6.45,9.49-16.46,15.1-29.52,15.1-28.51,0-47.51-22.4-47.51-46.5C316.57,55.63,339,36.63,363.06,36.63Zm.17,8.48c-19.85,0-38.18,15.61-38.18,38.86,0,19.85,15.61,38.18,38.86,38.18a38,38,0,0,0,29.69-14.26V59.36A38.4,38.4,0,0,0,363.23,45.11Z"/>
        </g>
      </g>
    </g>
  </g>
</svg>